<?xml version="1.0" encoding="UTF-8"?>
<svg version="1.1" viewBox="0 0 2048 2048" width="150" height="150" xmlns="http://www.w3.org/2000/svg">
<path transform="translate(0)" d="m0 0h2048v2048h-2048z" fill="#FEFEFD"/>
<path transform="translate(978,396)" d="m0 0h23l8 7 10 5 24 5 20 2 36 9 38 12 31 14 22 12 21 13 16 11 16 12 13 11 8 7 23 23 9 11 10 12 22 33 12 20 12 23 9 19 7 18 10 35 5 22 4 25 3 26v49l-4 36-6 29-7 26-12 31-15 33-12 23-9 14-6 9-10 13-11 13-7 8-9 10-11 12-12 11-17 14-30 20-13 8-37 19-23 10-36 12-30 7-23 4-26 3-18 1h-31l-28-2-25-4-29-6-19-5-40-15-27-13-8-5-11-6-9-6-11-8-16-12-10-7-5-5-13-12-7-8-13-14-9-11-11-13-14-19-10-15-9-15-9-17-12-27-8-20-10-32-7-41-3-27-1-31-4 1-2 5-5 8-11 23-6 10-13 22-8 14-9 16-9 13-3-1-2-6-2-33-3-14v-14l4-13 10-21 9-16 14-26 14-24 10-18 11-19 13-23 14-26 13-23 10-17 8-9 6-3 4 1 17 11 24 14 21 12 18 10 17 10 23 13 13 8 19 11 24 14 15 8 16 9 5 5 3 7 8 46 1 9-6-2-19-12-15-8-16-8-22-12-18-10-10-6-26-15-18-10-15-9-23-12-14-9-8-5-5 2-5 9-7 25-5 27-4 30-2 22v32l2 22 6 34 6 24 10 28 10 23 13 26 14 22 14 18 13 16 9 9 4 5 8 7 7 7 8 7 13 11 15 11 15 9 18 10 29 13 21 8 26 7 26 5 27 3 17 1h21l32-2 23-3 29-6 36-12 24-10 15-8 12-6 22-13 18-14 10-9 8-7 11-10 8-7 9-10 8-10 9-12 18-27 13-24 9-20 9-23 7-26 5-23 4-27 1-12v-44l-3-32-4-23-6-28-12-36-10-23-10-18-12-20-12-17-18-22-15-16-11-11-11-9-12-10-21-14-15-9-24-12-25-11-25-9-19-5-27-5h-8l-5-2-13 1-7 3-9 8-3 4-12 3h-10l-10-1-11 3h-18l-12-3-4-9-2-1-27-1-7-3-3-3v-4l34-1v-14h-21l-13-3-1-4 2-8 8-2h20l5 1 4-10 3-7 5-3z" fill="#F7181E"/>
<path transform="translate(708,96)" d="m0 0h290l25 2 23 4 14 4 15 6 16 8 15 9 12 9 10 9 12 12 11 15 11 19 11 23 8 25 4 22 1 13v12l-2 26-5 26-8 24-10 21-12 17-4 5-4 1-27-9-20-5-11-5 2-4 7-8 10-11 10-15 8-18 6-21 2-13 1-14v-10l-2-18-4-15-7-16-9-16-9-11-10-11-14-11-14-9-16-8-15-5-22-4-27-2h-268l-14 2-11 4-14 10-9 12-7 12-3 14-1 17v351l-3 12-7 12-6 12-7 11-9 17-14 21-4 3-1-18 1-55 1-376 2-30 4-16 5-12 6-10 7-9 9-10 16-12 15-8 19-5z" fill="#040202"/>
<path transform="translate(184,1308)" d="m0 0h128l15 2 12 4 13 7 9 8 9 13 6 12 4 12 1 6 1 23-5 13-9 10-6 7-2 4 1 6 7 9 6 7 6 12 2 13v16l-4 13-10 20-12 12-13 8-17 7-13 2-45 2-49 1h-35l-1-1z" fill="#F7181E"/>
<path transform="translate(721,1305)" d="m0 0h15l11 2 12 5 12 10h6l15-8 10-5 12-3 7-1h9l13 2 13 4 12 7 11 9 9 12 8 17 3 12 1 7 1 42-1 32v106h-36l-13-1-1-5v-101l-1-67-2-12-3-6-7-4-4-1h-13l-12 5-3 3-2 9-1 22-1 155-3 2-42 1-4-1v-165l-1-15-3-10-8-5-4-1h-13l-11 4-5 5-2 7-1 64-1 108-1 7-2 1h-44l-3-3v-165l2-17 4-16 7-14 8-11 9-8 13-8 14-5z" fill="#050202"/>
<path transform="translate(527,1364)" d="m0 0h26l16 4 10 4 12 9 6 5h13l3-1 2-6 4-5 4-2h8l3 5 1 82v66l-2 31-4 13-5 10-11 14-8 7-9 8-10 6-15 6-9 3-14 2-25 1-6-2-2-6v-18l2-14 3-6 2-1 22-1 12-2 11-7 6-5 3-7 1-5-12 2-14 5-11 2-19-2-11-4-8-4-8-3-14-10-10-10-10-14-7-13-4-13-2-17v-21l6-26 9-19 7-10 8-8 12-9 14-8 11-4z" fill="#F7181E"/>
<path transform="translate(1093,531)" d="m0 0h3l1 2v197l-1 168-2 5-5 3-36 7-1-3 1-21v-269l-1-9-5 1-16 11-15 9-21 12-45 26-17 10-19 11-20 11-10 7h-6l-14-8-10-6-21-12-23-13-17-10-38-22-18-10-23-13-15-9-19-12-11-8-2-4 3-8 8-11 7-17 2-2 5 1 15 8 19 12 27 15 39 23 24 14 27 15 20 11 9 7 6 3h7l8-4 21-12 26-15 14-8 22-13 35-21 28-17 26-15 18-11z" fill="#050202"/>
<path transform="translate(1252,1298)" d="m0 0h35l1 1v251l-1 6-8-1-7-2-4-10-2-7-4-3-7 1-17 12-12 6-17 5-17 2-17-2-23-9-14-9-5-4-7-8-8-9-9-16-6-16-2-14v-21l4-18 7-16 9-17 7-9 9-8 13-8 13-6 15-4 6-1h16l14 2 15 6 8 5 4 1v-14l-1-22v-42l1-1z" fill="#040202"/>
<path transform="translate(993,1364)" d="m0 0h11l17 3 16 6 10 6 9 8 3 2 7 1 5-4 6-10 4-5 3-2 6 1 4 8v178l-13-1-3-3-8-16-5-4-10 6-9 7-12 6-17 5-13 3h-17l-16-4-14-6-13-8-10-9-5-5-9-11-8-15-4-16-1-9v-19l2-16 3-12 7-17 10-16 13-13 11-7 15-7 15-4z" fill="#040202"/>
<path transform="translate(1375,1364)" d="m0 0h16l16 3 13 5 10 6 12 10 5 3h6l4-5 5-9 4-5 4-3h5l3 8 1 30 1 148-1 1-15-1-2-1-3-18-2-4-6-1-11 7-16 11-21 7-11 2h-22l-15-4-13-5-14-9-16-16-9-15-7-17-4-20v-17l3-16 5-15 12-23 8-10 10-9 11-7 15-7 11-3z" fill="#030202"/>
<path transform="translate(1497,1367)" d="m0 0 12 6 11 10 6-2 16-9 15-4 16-1 15 3 11 7 7 7 6 3 4-2 8-7 17-8 9-2h18l15 3 16 8 13 11 8 11 6 12 4 15v127l-1 1h-37l-10-1-1-113-1-13-2-7-9-3h-17l-10 2-3 12-1 17-1 66-1 39-22 1h-20l-4-1-1-5-1-104-1-16-3-9-12-3h-10l-12 3-3 4-2 16-1 114h-43l-4-1z" fill="#040202"/>
<path transform="translate(396,1371)" d="m0 0h49l2 1-3 28-1 17v105l1 11v18l-3 5h-14l-25-2-7-3-1-1v-174z" fill="#F7181E"/>
<path transform="translate(991,1413)" d="m0 0h13l11 2 10 5 8 7 7 10 5 11 1 3v19l-4 12-7 11-7 7-14 9-8 2h-16l-12-4-10-7-8-10-5-10-2-9v-15l3-12 7-13 9-10 9-5z" fill="#FFFFFE"/>
<path transform="translate(1377,1412)" d="m0 0h14l15 5 10 7 10 13 5 12 1 7v10l-4 16-6 9-9 10-14 8-7 2h-16l-12-4-9-7-8-9-6-11-2-14 1-14 4-12 6-10 6-7 10-7z" fill="#FFFFFE"/>
<path transform="translate(1184,1412)" d="m0 0h17l14 5 9 7 7 7 6 10 3 8v22l-4 12-8 11-7 7-16 9-5 1h-16l-11-4-10-9-8-11-5-11-2-10v-11l3-12 5-10 9-11 11-7z" fill="#FFFFFE"/>
<path transform="translate(530,1414)" d="m0 0h16l14 3 8 6 7 7 6 10 4 10 1 4v14l-4 13-9 12-7 7-14 8-7 2h-10l-10-3-11-6-7-7-7-11-4-11-1-5v-14l5-12 5-10 9-10 12-6z" fill="#FFFFFE"/>
<path transform="translate(238,1360)" d="m0 0h77l7 1 4 3 2 7v15l-3 14-5 3-14 2-18 1h-49l-4-5-1-3v-12l1-18 2-7z" fill="#FFFFFE"/>
<path transform="translate(245,1457)" d="m0 0 65 1 10 1 5 5 3 9v13l-2 10-3 3-10 3-10 1-35 1h-25l-5-2-3-4-1-3-1-14 1-16 3-6 1-1z" fill="#FFFFFE"/>
<path transform="translate(1362,801)" d="m0 0 7 1 2 6v18l1 2 1 7 3 7h2l1 9-1 9v3h-2l3 6-2 1 1 5h-2l2 8-2 1-1 8-1 1 1 3h-2l-2 4-2 6-2 3 1 5-6 13v4 5l-3 1-1 5-5 4-2 5-2 2h-3l-1 2-2-2 1-6-4-3v-5l-4-1-2 6-4 3 1-5 3-13 3-14 2-5 2-12h2l-1-7 1-10 1-4h2l1-9 2-4 1-5 2-5 1-13 5-11 1-14 2-9z" fill="#CC3733"/>
<path transform="translate(412,1289)" d="m0 0 9 1 12 3 10 9 4 5 4 11-1 10-4 9-7 8-8 6-2 1h-18l-11-3-8-9-5-10-3-9v-7l3-6 7-7 9-7 6-4z" fill="#F7181E"/>
<path transform="translate(1211,1583)" d="m0 0h27l10 6 7 8 3 6v17l-5 12-6 7-14 8-2 1h-14l-6-3-6-7-2-7v-42l5-5z" fill="#CF3532"/>
<path transform="translate(822,189)" d="m0 0h53l41 1 5 1 2 4v22l-4 2h-74l-22-1-3-1-2-6-1-15 2-6z" fill="#050202"/>
<path transform="translate(1097,1584)" d="m0 0h15l9 3 7 8 4 9 1 5v23l-1 12-1 2h-9v-8h-18l-9 3-10 4-3-1-1-3v-18l1-19 4-10 6-8z" fill="#D03331"/>
<path transform="translate(1490,1583)" d="m0 0h8v12l-30 2 6 8 8 6 4 6 2 10-11-1-8-1-3 5 1 6 3 1h11l9-2 6-1 3 7-1 4-7 3h-23l-10-3-5-5-1-3v-18l-2-11v-18l6-5 9-1z" fill="#F6191E"/>
<path transform="translate(1349,1584)" d="m0 0h29l2 5v9l-20-1-8 2-9 8-3 5v10l4 6 6 5 3 1h7l5-3 5-12 9-7 2 1 1 8v9l-4 8-5 6-10 5h-7l-10-3-11-8-6-8-4-11v-10l3-9 7-10 6-4z" fill="#CE3532"/>
<path transform="translate(1708,1584)" d="m0 0h22v12l-25 1-14 1-3-2v-2h-2l4 4 14 9 7 3 15 3 3 2 2 8v13l-3 6-6 4-9 2h-25l-5-3-1-2v-7l5-1 36 2 3-1v-2l-9-2-12-8-7-6-2-3-2 3-5-1-3-3v-2l-3-1-3-7v-9l2-5 8-4z" fill="#F51A1F"/>
<path transform="translate(978,1583)" d="m0 0h27l2 2 1 11-1 2h-9l-7-1h-8l-6 5-6 9-1 2v10l4 7 7 4h7l8-4 5-13 5-4h2l2 7v12l-6 10-7 5-3 1h-14l-10-4-9-8-5-10-1-4v-15l5-10 8-10 5-3z" fill="#D03431"/>
<path transform="translate(1292,1678)" d="m0 0h11l3 3v14l-3 10v3l2 1 1-4 4-5 8-7 5-6 7 1 4 4 3 14 1 4 7-4 1-2-1-21 1-4 1-1h9l5 5 2 9 6 5 1 4v7l-2 2-13 3-16 1-6-1h-25l-9-1-11-17-4-10 2-4z" fill="#070202"/>
<path transform="translate(1188,1679)" d="m0 0 9 1 11 4 11 12 3 6h6l2-1 5-10 4-4v-5l5 1 1 7-3 10-6 12-6 4h-7l-5-2-7-8-4 1-9 6-6 5h-6l-6-5-2-4v-18l4-8z" fill="#0B0203"/>
<path transform="translate(1504,1677)" d="m0 0 10 1 4 5 4 9 3 3 5 3 4-6 8-4h14l4 3 1 4v14l-2 5h-19l-9-1-1-13-6-2v10l2 6-8 1h-14l1-13-3-8v-15z" fill="#050202"/>
<path transform="translate(650,851)" d="m0 0 2 4 2 11v4h2l6 28 11 33 11 25 13 26 14 22 14 18 13 16 9 9 4 5 8 7 7 7 8 7 13 11 15 11 15 9 18 10v2l-6-2-13-8-8-4-10-7-11-8-10-9-13-10-10-10-6-5-7-8-7-6-9-12-14-18-5-7v-2h-2l-2-4-2-1-3-6-6-4-3-10-3-4-2-5-4-6-3-4-2-9-2-3-2-7-1-7-4-1-3-10v-5h2l-2-3h-2v-2h-2l-2-2h-1v-5l-6 2v-4l-3-15v-3l2-10 2-6 2 4-2-9z" fill="#D5312F"/>
<path transform="translate(1578,1584)" d="m0 0h32l3 2-1 7-5 4-12 5-2 1 1 13 4 26-1 3-3 1h-9l-4-2-1-6 2-3v-20l2-18h-21v-10l3-2z" fill="#D03531"/>
<path transform="translate(1580,1680)" d="m0 0h16l5 1 2 4-1 7-5 11-3 10 7-1 5-9 1-10 3-4 4-1h7l3 1 3 9 1 13-3 3-3 1h-11l-4-1h-24l-1-3v-12z" fill="#060202"/>
<path transform="translate(1685,1685)" d="m0 0h10l26 6 2 5v16l-2 2h-17l-18-2-2-11v-13z" fill="#080303"/>
<path transform="translate(1206,1585)" d="m0 0 2 1-2 3v3l4-1-1 3 6-1 11 1v2h6l2 2h-10l-5 6-1 10 2 12 1 3-3 6-4 2-2 2v-2l-6-1-1 2-2-7v-42z" fill="#F6191E"/>
<path transform="translate(1e3 1681)" d="m0 0 10 1 5 3 9 5 1 2v6l-8 8-6-2-5-3-1 6-7 6-5 2-12 1-12-2-3-3v-4h11l5 2h9l6-3 1-1v-21z" fill="#090202"/>
<path transform="translate(1395,1678)" d="m0 0 5 2 9 4v2l6 2 8 7v7l-6 5-6-1-10-11-3 1-1 2-1 11-4 4-4-1-1-2-1-17 2-12z" fill="#0E0303"/>
<path transform="translate(1224,1597)" d="m0 0h7l8 4 4 8v12l-6 7-6 3h-8l-4-5-2-12 1-10z" fill="#FFFFFE"/>
<path transform="translate(623,1372)" d="m0 0h8l3 5-1 72h-1l-1-23-2 9-3 5 1 3-2 6 1 8 1 3-2 10-2-3-2-14v-4l2-23v-11l1-16-1-11v-9h-6l1-4z" fill="#CC3733"/>
<path transform="translate(1490,1583)" d="m0 0h8v12l-38 1-1 1 5 1 6 5-3 9v9h-2l-2-7-1-8h-2l-4 2-4-5-2-9 1-5 5-4 9-1z" fill="#CF3532"/>
<path transform="translate(1347,1678)" d="m0 0h9l5 5 2 9 6 5 1 4v7l-2 2-13 3-16 1-3-3 9-5 1-2-1-21 1-4z" fill="#100303"/>
<path transform="translate(1362,667)" d="m0 0h3l6 18 8 29 5 24 3 19v16l-2-4-1 2-4-2 1-6 2 2v-14l-3 1-3-1-1-6 1-5 3-6-4 1-4-3-4-1v-2l-3-1-1-10-1-6 2-1 1 2h2l1 2h2l-1-4 3-8-3-1-2-7 1-1-1-5-4-2v-2h2z" fill="#D13431"/>
<path transform="translate(1504,1677)" d="m0 0 10 1 4 5 4 9 3 3 4 2 1 3-6-2v10l2 6-8 1h-14l1-13-3-8v-15z" fill="#0A0202"/>
<path transform="translate(1470,1685)" d="m0 0 6 1 5 4 2 11 5 3h2l1-6 7-6h1v15l-2 5-1 1-11 2-2-1-1-4-3 6h-10l-4-2v-9l4-18z" fill="#0E0707"/>
<path transform="translate(1098,1681)" d="m0 0 11 3-1 6-1 1v14l5-1 2-7v-6l1-2h6l5 5 3 5-3 12-4 1-4-1-2 5h-13l-4-3 3-5h3v-2l-3-1-1-3-4-2-4-5 1-5z" fill="#140404"/>
<path transform="translate(1446,1683)" d="m0 0 9 1 1 1-1 9-5 14-10 7-3 1h-13l-3-3 3-11 4 2 1-5 1-7 2 1 1 6 4-4 8-11z" fill="#090202"/>
<path transform="translate(1646,1678)" d="m0 0 4 1 17 1 11 3 1 3-6 11-7 9-1 2h5l1-6h1l2 9 1 2h-13l-6-1v-18l-4-5-6-3z" fill="#0E0303"/>
<path transform="translate(1102,1596)" d="m0 0h7l6 4 4 7 1 4v9l-4 4-7 2h-8l-4-5-2-5v-12z" fill="#FFFFFE"/>
<path transform="translate(1459,1611)" d="m0 0h3l1 11 1 4 2-1v9l1 2 3 1h11l9-2 6-1 3 7-1 4-7 3h-23l-10-3-5-5v-12l2 1 1 5 3-1-1-6v-10l3 1v-6z" fill="#CE3632"/>
<path transform="translate(1708,1584)" d="m0 0h22v12l-25 1-14 1-3-2v-2h-2l4 4-1 2-6-3 2 12 1 2h-3l-3-7v-9l2-5 8-4z" fill="#C4322F"/>
<path transform="translate(938,191)" d="m0 0h13l5 3 3 5v13l-3 5-4 1h-11l-4-2-2-4v-19z" fill="#060202"/>
<path transform="translate(1721,1613)" d="m0 0 7 1 3 9v13l-3 6-6 4-9 2h-25l-5-3-1-2v-7l5-1 36 2h5v-6l-3 1v-2h3v-13l-4-2z" fill="#D03331"/>
<path transform="translate(1614,1688)" d="m0 0h7l3 1 3 9 1 13-3 3-3 1h-11l-4-1h-9l5-5 3-6 1-10 3-4z" fill="#090202"/>
<path transform="translate(1040,1686)" d="m0 0 7 1 3 5-1 16-2 6-5 2h-11l-6-3-1-4 2-4 4-2 2-4 2-9 3-3z" fill="#130C0C"/>
<path transform="translate(1584,1600)" d="m0 0h2l1 12 3-1 2-2 2 7 4 26-1 3-3 1h-9l-4-2-1-6 2-3v-20z" fill="#CE3431"/>
<path transform="translate(650,851)" d="m0 0 2 4 2 11v4h2l6 28 3 10v5l-5-2v-2h-2l-2-2h-1v-5l-6 2v-4l-3-15v-3l2-10 2-6 2 4-2-9z" fill="#CF3532"/>
<path transform="translate(1075,1681)" d="m0 0 5 2 3 5 8 6-2 13-3 5-5 1-5-5-4-12-2-9 3-5z" fill="#0B0202"/>
<path transform="translate(1145,1683)" d="m0 0 7 1 2 3v9l-4 15-4 4-6 1-5-2v-6l8-19z" fill="#080202"/>
<path transform="translate(1194,1686)" d="m0 0 4 2 4 8 1 3v7l-3 4-9 1-6-7-1-6 3-6z" fill="#FFFFFE"/>
<path transform="translate(1253,1685)" d="m0 0 5 2 4 9 1 14-2 2h-14l1-11 3-13z" fill="#080202"/>
<path transform="translate(978,1591)" d="m0 0 3 1-1 2h9l15 2 3 2h-9l-7-1h-8l-6 5-6 9h-3l-2 6-1 7h-2l-2 2-1-2 1-14h2l1-6 8-9h2v-3l2 1 1-1z" fill="#F6181E"/>
<path transform="translate(963,1633)" d="m0 0 14 2 6 2-1 2 10 2v4l-2 2-10 1-10-4-7-6z" fill="#F6191E"/>
<path transform="translate(744,1045)" d="m0 0 5 5 12 11 14 13 11 9 13 10 18 11 18 10v2l-6-2-13-8-8-4-10-7-11-8-10-9-13-10-10-10-6-5-4-4z" fill="#DA2D2C"/>
<path transform="translate(1362,1692)" d="m0 0 5 3 2 2 1 4v7l-2 2-9 2-6-2 1-4 6-10z" fill="#1D0405"/>
<path transform="translate(646,794)" d="m0 0h1l2 41v9l-2-4-1-12-2-3-1 2-4-1 2-2h-3v-2h3l-4-8h2l1-4 4-6h1z" fill="#CD3633"/>
<path transform="translate(854,721)" d="m0 0 6 2 11 6 5 5 3 7 3 17v9l-2-1v-5h-2v-6h-3l1 6-3-1-1-4h2l1-16-3-5-5-5-13-7z" fill="#D5312F"/>
<path transform="translate(1051,1147)" d="m0 0h12v1l-9 2-15 2-17 1-7 1h-34l-11-1v-1l52-2z" fill="#D82E2D"/>
<path transform="translate(1246,1631)" d="m0 0h2l-2 4-4 5-1 3-10 5h-14v-1l8-1 2-3-2-2 5-2 3-1v-2l6-1v-2l6-1z" fill="#F6191E"/>
<path transform="translate(1335,1629)" d="m0 0 11 7 6 4v2h4v4h-7l-9-4-6-8z" fill="#F6181E"/>
<path transform="translate(1492,1634)" d="m0 0 5 1 1 4-1 4-3 1-3-2v-2l-4-1-5 4h-11l-3-3v-3h13l9-2z" fill="#F5191F"/>
<path transform="translate(1294,551)" d="m0 0 4 1 10 13 22 33 5 8-1 4-3-4v-3h-2l-2-4v-3h-2l-6-9-5-8v-3l-3-1-5-9-2-1-1-3-3-3-4-6z" fill="#D72F2E"/>
<path transform="translate(1213,478)" d="m0 0 4 1 17 12 10 8 11 9 10 9 5 6-2 1-6-7-8-7-12-10-14-10-10-8z" fill="#DA2D2C"/>
<path transform="translate(1457,1596)" d="m0 0 7 2 6 5-3 9v9h-2l-2-7-2-10-4-6z" fill="#FFFFFE"/>
<path transform="translate(890,452)" d="m0 0h5l1 4h11l13 2v2h-25l-5-4z" fill="#CE3632"/>
<path transform="translate(1452,1592)" d="m0 0 5 1 2 3h-2l4 6-1 5-4 1-4-5-2-10z" fill="#D82F2D"/>
<path transform="translate(1362,1694)" d="m0 0h1l-1 12-1 3-3 2-5-1 1-4 6-10z" fill="#FFFFFE"/>
<path transform="translate(1338,1609)" d="m0 0 2 1-1 11-1-4-3 1-2 4-3-1 1-6 2-3h2v-2z" fill="#F8181E"/>
<path transform="translate(363,1335)" d="m0 0 4 2 7 12 3 8v5l-3-3-4-10-3-6-4-6z" fill="#DA2D2C"/>
<path transform="translate(1563,1587)" d="m0 0 1 3h6l2 1-2 4 13 1v1h-20z" fill="#F8181E"/>
<path transform="translate(1318,584)" d="m0 0h3l12 19 2 3-1 4-3-4v-3h-2l-2-4v-3h-2l-6-9z" fill="#D82E2D"/>
<path transform="translate(1273,526)" d="m0 0 7 6 7 7 7 8v2h-3l-9-11-10-10z" fill="#D23330"/>
<path transform="translate(1459,1595)" d="m0 0h25v1l-16 1 5 7-4 2 1-3-4-2-4-3-3-1z" fill="#F8181E"/>
<path transform="translate(1492,1634)" d="m0 0 5 1 1 4-1 4-3 1-3-2v-2l-6-2 2-2z" fill="#F01D21"/>
<path transform="translate(1101,1594)" d="m0 0h8v2l-7 1-6 7-1 11h-1l-1-13 5-6z" fill="#F8181E"/>
<path transform="translate(1352,644)" d="m0 0h3l7 16v5l-3-3-5-12z" fill="#D92E2D"/>
<path transform="translate(1586,1600)" d="m0 0h2v2l3 1v8l-5 2z" fill="#F8181E"/>
<path transform="translate(1122,1613)" d="m0 0h4v7l4 1-1 5h-3l-1-4-3-3z" fill="#F8181E"/>
<path transform="translate(810,1101)" d="m0 0 5 2 20 11v2l-6-2-13-8-5-2z" fill="#DC2B2B"/>
<path transform="translate(1111,1587)" d="m0 0h5l1 3-1 3h-6l-1-3-3 1v-2z" fill="#F8181E"/>
<path transform="translate(1339,870)" d="m0 0 1 2 3 1-2 1 2 3-1 3-5 4-1-3 2-10z" fill="#CD3733"/>
<path transform="translate(1379,1612)" d="m0 0 2 1v7l-2 1-1-3 1-2-7 4-3 2 2-4z" fill="#F41A1F"/>
<path transform="translate(1336,611)" d="m0 0h2l7 13v3h-2l-6-11v-3l-2-1z" fill="#DB2C2C"/>
<path transform="translate(854,721)" d="m0 0 6 2 11 6-1 2-5-2-11-6z" fill="#DD2B2B"/>
<path transform="translate(1452,1592)" d="m0 0 5 1 2 3h-2l-1 2-4-1-1 2-1-6z" fill="#F83237"/>
<path transform="translate(362,1440)" d="m0 0 4 2 8 9-1 4-7-9z" fill="#DB2D2C"/>
<path transform="translate(1345,628)" d="m0 0h2l6 12v3l-2-1-6-11z" fill="#D92D2D"/>
<path transform="translate(1254,509)" d="m0 0 5 2 11 11-2 2-6-7-8-7z" fill="#D6302E"/>
<path transform="translate(1318,584)" d="m0 0h3l7 11-3 1-6-9z" fill="#D7302E"/>
<path transform="translate(1294,551)" d="m0 0 4 1 10 13-2 1-2-1-1-3-3-3-4-6z" fill="#DB2D2C"/>
<path transform="translate(1112,1596)" d="m0 0 4 1 4 2 1 5-2-1v-2h-2l-1 2-5-6z" fill="#F11C21"/>
<path transform="translate(858,1126)" d="m0 0 6 1 8 3v2l-7-1v-2l-5-1z" fill="#D82F2D"/>
<path transform="translate(1697,1611)" d="m0 0 5 1-1 6 3 4-4-2-2-2v-5l-2-1z" fill="#D5312F"/>
<path transform="translate(1715,1615)" d="m0 0 5 1-1 4-3 1-3-2z" fill="#CC3834"/>
<path transform="translate(1124,1594)" d="m0 0 4 4-1 8-2-2-2-8z" fill="#F8181E"/>
</svg>
